<mxfile host="app.diagrams.net" modified="2024-03-11T12:34:27.902Z" agent="Mozilla/5.0 (Windows NT 10.0; Win64; x64) AppleWebKit/537.36 (KHTML, like Gecko) Chrome/122.0.0.0 Safari/537.36 Edg/122.0.0.0" etag="2qUd-Nk3RfNZJkSxL07j" version="24.0.2" type="github">
  <diagram name="Page-1" id="npN89OIja40VoGioMNo7">
    <mxGraphModel dx="1281" dy="583" grid="1" gridSize="10" guides="1" tooltips="1" connect="1" arrows="1" fold="1" page="1" pageScale="1" pageWidth="827" pageHeight="1169" math="0" shadow="0">
      <root>
        <mxCell id="0" />
        <mxCell id="1" parent="0" />
        <mxCell id="DpjPmnDoRVj_L7Nkvj0V-3" value="" style="edgeStyle=orthogonalEdgeStyle;rounded=0;orthogonalLoop=1;jettySize=auto;html=1;" edge="1" parent="1" source="DpjPmnDoRVj_L7Nkvj0V-1" target="DpjPmnDoRVj_L7Nkvj0V-2">
          <mxGeometry relative="1" as="geometry" />
        </mxCell>
        <mxCell id="DpjPmnDoRVj_L7Nkvj0V-1" value="dzczx" style="rounded=1;whiteSpace=wrap;html=1;" vertex="1" parent="1">
          <mxGeometry x="294" y="150" width="120" height="60" as="geometry" />
        </mxCell>
        <mxCell id="DpjPmnDoRVj_L7Nkvj0V-2" value="" style="rounded=1;whiteSpace=wrap;html=1;" vertex="1" parent="1">
          <mxGeometry x="294" y="310" width="120" height="60" as="geometry" />
        </mxCell>
      </root>
    </mxGraphModel>
  </diagram>
</mxfile>
